<svg xmlns="http://www.w3.org/2000/svg" viewBox="0 0 255.26 268.64"><defs><style>.cls-1{fill:#fff;}.cls-2{fill:#1d1d1b;}</style></defs><g id="Layer_2" data-name="Layer 2"><g id="Logo"><path class="cls-1" d="M80.59,264.53l41-96.82-1.79-3.92h-66l-4.79,11a29.8,29.8,0,0,0-2.37,11.58,19,19,0,0,0,2.72,9.61,18.47,18.47,0,0,0,7.05,7.19,20.44,20.44,0,0,0,5.21,2.32,38.45,38.45,0,0,0,6.77.8l1.42.07v7.36H1.5V206.4l1.34-.15a41.71,41.71,0,0,0,10.9-2.39,39.41,39.41,0,0,0,9-5.5c7.89-6,15.72-17.67,23.3-34.61l51.4-115.4h6.17l35.84,77.27,32.18-75.94.68-1.65h0L191.86,2l5.07,2.14L178.32,48h21.32a69,69,0,0,1,19.54,2.81c6.34,1.89,11.39,4.45,15,7.61A37.87,37.87,0,0,1,244.64,72a39.94,39.94,0,0,1,3.71,17c0,9.89-3.94,18.54-11.7,25.69a47.73,47.73,0,0,1-10,7.22A107.58,107.58,0,0,1,215.46,127a77.09,77.09,0,0,1,16.42,6.7c14.53,9,21.88,21.51,21.88,37.23a40.19,40.19,0,0,1-6.61,22.84,42.41,42.41,0,0,1-18.83,15c-8,3.45-17.6,5.2-28.46,5.2H113v-7.55h4.9c6.67,0,11.48-2.18,14.69-6.67s4.94-11.83,4.94-21.46l-.05-33.93-3.81,9-1.28,3L85.65,266.68ZM189.66,206.9c10.53,0,18.67-3.29,24.19-9.79s8.46-16.08,8.46-28.36c0-10.45-2.3-18.82-6.83-24.88a27.08,27.08,0,0,0-12.54-10c-5-1.88-12.52-2.83-22.35-2.83H165V206.9Zm-73.51-50.33L86.26,90.78,57.08,156.57Zm72.57-33c19.88,0,29.54-11.92,29.54-36.43,0-11-2.11-19.13-6.28-24.31s-10.57-7.67-19.24-7.67H175.32l-9.95,23.47-.32,44.94Z"/><path class="cls-2" d="M192.66,3.93l2.3,1L176.05,49.53h23.59a67.05,67.05,0,0,1,19.11,2.75c6.13,1.83,11,4.25,14.46,7.3a36.27,36.27,0,0,1,10.07,13A38.32,38.32,0,0,1,246.85,89q0,14.24-11.21,24.59a46.78,46.78,0,0,1-9.66,7A123.31,123.31,0,0,1,211.43,127v.46a81.21,81.21,0,0,1,19.7,7.57q21.15,13.08,21.13,35.93a38.54,38.54,0,0,1-6.35,22,40.86,40.86,0,0,1-18.18,14.47q-11.8,5.09-27.87,5.08H114.49V208h3.4c7.16,0,12.44-2.45,15.91-7.3S139,188.36,139,178.34L139,137.05l-6.68,15.77-1.28,3L84.86,264.71l-2.3-1,40.68-96.06-2.46-5.39H52.83l-5.18,11.85a31.22,31.22,0,0,0-2.5,12.19,20.39,20.39,0,0,0,2.92,10.37,19.88,19.88,0,0,0,7.61,7.74,21.62,21.62,0,0,0,5.58,2.46,39.16,39.16,0,0,0,7.06.84v4.44H3v-4.44a43.06,43.06,0,0,0,11.31-2.49,41.52,41.52,0,0,0,9.36-5.7q12.2-9.33,23.75-35.19l51-114.51h4.25l36.85,79.47L173,50.26l.31-.73h0l19.32-45.6M163.54,125h25.18q31,0,31-37.93,0-17-6.61-25.25t-20.41-8.23H174.32L163.87,78.27,163.54,125M54.78,158.07h63.7L86.24,87.12,54.78,158.07M163.54,208.4h26.12c11,0,19.47-3.41,25.34-10.32s8.81-16.65,8.81-29.33q0-16.23-7.13-25.78a28.42,28.42,0,0,0-13.22-10.49q-7.83-2.92-22.87-2.92H163.54V208.4M191.07,0,189.9,2.76,171.35,46.53h0l-.77,1.85-.31.74-30.85,72.8-34-73.33-.81-1.74H96.47l-.79,1.78-51,114.51c-7.47,16.7-15.15,28.15-22.83,34a38.36,38.36,0,0,1-8.67,5.31,40.51,40.51,0,0,1-10.5,2.29L0,205.05v10.13H71.32V204.9l-2.84-.15A37.36,37.36,0,0,1,62,204a19,19,0,0,1-4.78-2.14l0,0h0a16.83,16.83,0,0,1-6.48-6.61,17.6,17.6,0,0,1-2.53-8.89,28.25,28.25,0,0,1,2.27-11l4.38-10h64.05l1.11,2.44L79.79,262.57l-1.17,2.76,2.77,1.17,2.3,1,2.76,1.17,1.17-2.76,23.87-56.35v6h88.37c11.07,0,20.84-1.79,29-5.32a44,44,0,0,0,19.48-15.54A41.67,41.67,0,0,0,255.26,171c0-16.27-7.59-29.22-22.55-38.48l0,0,0,0a71.55,71.55,0,0,0-12.8-5.6c3-1.31,5.56-2.51,7.61-3.64a50,50,0,0,0,10.26-7.44c8.06-7.44,12.16-16.45,12.16-26.78A41.54,41.54,0,0,0,246,71.32a39.45,39.45,0,0,0-10.86-14c-3.78-3.29-9-5.94-15.53-7.88a70.19,70.19,0,0,0-20-2.88H180.58L197.73,6.08l1.17-2.76-2.77-1.17-2.3-1L191.07,0ZM176.31,56.61h16.43c8.31,0,14.22,2.33,18.07,7.11s5.95,12.77,5.95,23.37c0,11.87-2.39,20.8-7.09,26.54S198.2,122,188.72,122H166.56l.31-43.13,9.44-22.28ZM59.39,155.07,86.27,94.44l27.55,60.63Zm107.15-22.51h14.05c9.65,0,17,.92,21.82,2.73a25.6,25.6,0,0,1,11.84,9.43v0l0,0c4.33,5.8,6.53,13.87,6.53,24,0,11.92-2.72,21.13-8.09,27.38s-12.85,9.27-23.06,9.27H166.54V132.56ZM113.42,205l20.34-48L135,154l.95-2.24,0,26.57c0,9.31-1.57,16.24-4.67,20.59-2.9,4.06-7.31,6-13.46,6h-4.47Z"/></g></g></svg>