<svg xmlns="http://www.w3.org/2000/svg" xmlns:xlink="http://www.w3.org/1999/xlink" viewBox="0 0 1815.82 1373.25"><defs><style>.cls-1{fill:#1d1d1b;}.cls-2{fill:#fff;}.cls-3{fill:url(#linear-gradient);}.cls-4{fill:url(#linear-gradient-2);}.cls-5{fill:url(#linear-gradient-3);}.cls-6{fill:url(#linear-gradient-4);}.cls-7{fill:url(#linear-gradient-5);}.cls-8{fill:url(#linear-gradient-6);}.cls-9{fill:url(#linear-gradient-7);}.cls-10{fill:url(#linear-gradient-8);}</style><linearGradient id="linear-gradient" x1="1198.66" y1="368.92" x2="964.52" y2="559.1" gradientUnits="userSpaceOnUse"><stop offset="0" stop-color="#fff"/><stop offset="0.13" stop-color="#cbcbcb"/><stop offset="0.31" stop-color="#8e8e8e"/><stop offset="0.48" stop-color="#5b5b5b"/><stop offset="0.64" stop-color="#343434"/><stop offset="0.78" stop-color="#171717"/><stop offset="0.91" stop-color="#060606"/><stop offset="1"/></linearGradient><linearGradient id="linear-gradient-2" x1="745.94" y1="882.3" x2="624.64" y2="879.49" gradientUnits="userSpaceOnUse"><stop offset="0" stop-color="#fff"/><stop offset="1"/></linearGradient><linearGradient id="linear-gradient-3" x1="1104.67" y1="562.5" x2="974.79" y2="643.51" gradientUnits="userSpaceOnUse"><stop offset="0" stop-color="#fff"/><stop offset="0.4" stop-color="#9c9c9c"/><stop offset="1"/></linearGradient><linearGradient id="linear-gradient-4" x1="1124.66" y1="807.09" x2="647.32" y2="871.98" gradientUnits="userSpaceOnUse"><stop offset="0" stop-color="#fff"/><stop offset="0.03" stop-color="#efefef"/><stop offset="0.14" stop-color="#b8b8b8"/><stop offset="0.26" stop-color="#878787"/><stop offset="0.37" stop-color="#5d5d5d"/><stop offset="0.49" stop-color="#3c3c3c"/><stop offset="0.61" stop-color="#212121"/><stop offset="0.73" stop-color="#0f0f0f"/><stop offset="0.86" stop-color="#040404"/><stop offset="1"/></linearGradient><linearGradient id="linear-gradient-5" x1="868.83" y1="520.18" x2="599.15" y2="588" gradientUnits="userSpaceOnUse"><stop offset="0" stop-color="#fff"/><stop offset="0.07" stop-color="#dfdfdf"/><stop offset="0.22" stop-color="#a5a5a5"/><stop offset="0.36" stop-color="#727272"/><stop offset="0.5" stop-color="#494949"/><stop offset="0.64" stop-color="#292929"/><stop offset="0.77" stop-color="#121212"/><stop offset="0.89" stop-color="#050505"/><stop offset="1"/></linearGradient><linearGradient id="linear-gradient-6" x1="1200.1" y1="357.75" x2="1027.21" y2="382.93" gradientUnits="userSpaceOnUse"><stop offset="0" stop-color="#fff"/><stop offset="0.02" stop-color="#f2f2f2"/><stop offset="0.14" stop-color="#bababa"/><stop offset="0.25" stop-color="#888"/><stop offset="0.37" stop-color="#5e5e5e"/><stop offset="0.49" stop-color="#3c3c3c"/><stop offset="0.61" stop-color="#222"/><stop offset="0.74" stop-color="#0f0f0f"/><stop offset="0.86" stop-color="#040404"/><stop offset="1"/></linearGradient><linearGradient id="linear-gradient-7" x1="1277.91" y1="738.14" x2="1090.26" y2="839.57" xlink:href="#linear-gradient"/><linearGradient id="linear-gradient-8" x1="1336.7" y1="788.78" x2="1150.83" y2="868.06" gradientUnits="userSpaceOnUse"><stop offset="0.28" stop-color="#fff"/><stop offset="0.33" stop-color="#ebebeb"/><stop offset="0.8" stop-color="#444"/><stop offset="1"/></linearGradient></defs><g id="Logotip_na_bijeloj_pozadini" data-name="Logotip na bijeloj pozadini"><path class="cls-1" d="M610.93,1102.86a40.51,40.51,0,0,1-40.21-45.36l12.67-104.88A40.49,40.49,0,0,1,623.55,917l85.22-.09a51.21,51.21,0,0,1,6.83.45,40.93,40.93,0,0,1,6.1-.47l109.78-.11a50.37,50.37,0,0,1,17.42,3,40.36,40.36,0,0,1,15.47-3.09l53.2-.05a48.72,48.72,0,0,1,8.28.71,40.46,40.46,0,0,1,7.67-.73l29.24,0h1.13l1.19,0,57.89-.06a48.73,48.73,0,0,1,12,1.5,49.69,49.69,0,0,1,12.27-1.52l36.43,0a40.68,40.68,0,0,1,10.46,1.37,40.21,40.21,0,0,1,10.52-1.39l28.92,0a39.79,39.79,0,0,1,5.25.34,42.72,42.72,0,0,1,5.33-.36l28.78,0c.6,0,1.19,0,1.79,0s1.23,0,1.85,0l28.06,0a40.28,40.28,0,0,1,5,.32,39.28,39.28,0,0,1,5.11-.33l28.92,0h2.15l54.9-.06A48.36,48.36,0,0,1,1343.58,941c4.89,8.73,7.27,18.72,7.29,30.57a119.93,119.93,0,0,1-.93,14.28s-1.11,9.41-1.12,9.51a81.34,81.34,0,0,1-1.73,9.32c-.22.91-.46,1.82-.71,2.71.2,2.1.29,4.27.3,6.53s-.1,4.17-.3,6.29l-.18,2.3c0,.59-.1,1.18-.17,1.76l-2.24,18.43c-1.4,11.7-4.13,21.53-8.33,30-9.1,18.4-26.23,29.4-45.81,29.42l-56.47.06h-2.08l-54.21.06a50,50,0,0,1-8.7-.76,41,41,0,0,1-7.88.78l-28.77,0a40,40,0,0,1-5.26-.35,42.56,42.56,0,0,1-5.32.36l-28.92,0a40.62,40.62,0,0,1-10.46-1.37,40.63,40.63,0,0,1-10.52,1.39l-36.13,0a49.23,49.23,0,0,1-12.08-1.49,50.17,50.17,0,0,1-12.24,1.51l-58.22.07-1.13,0-1.16,0-60.71.06a39.63,39.63,0,0,1-4.52-.25,40.46,40.46,0,0,1-4.56.26l-28.56,0a40.57,40.57,0,0,1-14.77-2.78,50.23,50.23,0,0,1-16.63,2.82l-56.47.06a40.57,40.57,0,0,1-6-.46,40,40,0,0,1-6.13.47l-29.84,0a40.69,40.69,0,0,1-6.35-.5,41.07,41.07,0,0,1-6.41.52l-28.06,0c-1.14,0-2.27,0-3.39-.14-1.14.1-2.3.15-3.46.15l-28.21,0c-1.14,0-2.27,0-3.4-.14-1.13.1-2.28.15-3.44.15Z"/><path class="cls-1" d="M614,1104.22a40.49,40.49,0,0,1-40.21-45.36l12-99.47A40.5,40.5,0,0,1,626,923.74l82.83-.09a49,49,0,0,1,8,.66,40.29,40.29,0,0,1,7.33-.67l50-.06c.81,0,1.62,0,2.43.08s1.65-.08,2.48-.08l52.51-.06a47.49,47.49,0,0,1,18.43,3.65,40.37,40.37,0,0,1,16.86-3.68l50.8-.06a44.76,44.76,0,0,1,9.39,1,40.72,40.72,0,0,1,8.95-1l23.8,0c1.29,0,2.58.06,3.86.18,1.28-.12,2.59-.19,3.91-.19l55.5-.06a45.88,45.88,0,0,1,12,1.59,47.46,47.46,0,0,1,12.27-1.62l33.39,0a40.64,40.64,0,0,1,13.18,2.2,40.64,40.64,0,0,1,13.23-2.23l23.48,0a40.07,40.07,0,0,1,8,.79,40.23,40.23,0,0,1,8-.81l23.34,0a39.71,39.71,0,0,1,4.51.26,40.77,40.77,0,0,1,4.57-.27l22.63,0a40.83,40.83,0,0,1,7.76.75,41.33,41.33,0,0,1,7.83-.77l23.48,0c1.27,0,2.52.06,3.77.17,1.26-.12,2.53-.18,3.82-.18l52.51-.06a45.69,45.69,0,0,1,40.45,23.39c4.66,8.3,6.94,17.87,6.94,29.26a116.7,116.7,0,0,1-.9,14s-1.11,9.37-1.12,9.47a79.13,79.13,0,0,1-1.67,9c-.26,1.06-.53,2.1-.82,3.12.21,2.17.32,4.42.33,6.77q0,3-.29,6.07l-.18,2.26c0,.59-.1,1.18-.17,1.76,0,0-2.21,18.19-2.21,18.22-1.37,11.49-4,21.06-8.08,29.28-8.65,17.45-24.87,27.89-43.39,27.92l-53.44,0c-1.25,0-2.49-.06-3.73-.17-1.25.12-2.51.18-3.79.18l-51.81,0a47.65,47.65,0,0,1-9.83-1,40.52,40.52,0,0,1-9.14,1l-23.33,0a40.67,40.67,0,0,1-8-.79,41.94,41.94,0,0,1-8,.81l-23.48,0a40.64,40.64,0,0,1-13.18-2.2,40.59,40.59,0,0,1-13.23,2.23l-33.74,0a46.38,46.38,0,0,1-12.08-1.59,47.21,47.21,0,0,1-12.23,1.61l-55.18.06c-1.29,0-2.57-.06-3.83-.18-1.29.12-2.59.19-3.9.19l-23.77,0c-1.11,0-2.23,0-3.33-.13-1.12.09-2.25.14-3.38.14l-25.43,0a40.56,40.56,0,0,1-6.92-.59,40.94,40.94,0,0,1-7,.6l-23.12,0a40.54,40.54,0,0,1-16.47-3.5,47,47,0,0,1-18,3.53l-53.42.06a40.79,40.79,0,0,1-8.78-1,40.32,40.32,0,0,1-8.84,1l-24.41,0a40.33,40.33,0,0,1-9.06-1,40.5,40.5,0,0,1-9.13,1l-22.63,0a39.93,39.93,0,0,1-6.1-.47,39.44,39.44,0,0,1-6.18.48l-22.77,0a40.06,40.06,0,0,1-6.11-.47,40.68,40.68,0,0,1-6.18.48Zm186.47-96-.69.65h.69Z"/><path class="cls-1" d="M883.68,1056.25a40.49,40.49,0,0,1-40.21-45.32l.17-1.43a40.51,40.51,0,0,1,40.21-35.68h13.34a40.51,40.51,0,0,1,29.28,68.49A44.58,44.58,0,0,1,894,1056.24Z"/><path class="cls-1" d="M1291.57,917.34a40.5,40.5,0,0,1-37.45-25.14c-1.41-3.42-2.91-6.55-4.66-10.18l-.2-.41c-2-4.09-4.19-8.73-6.59-14.47q-2.33-5.57-4.87-11.15a48.5,48.5,0,0,1-23.22,5.71h-1.24c-55-1.05-120.24-3.12-187.77-10.52-35.37-3.88-73-8.65-110.33-20.45a120.21,120.21,0,0,1-16.54-6.56,40.5,40.5,0,0,1,7.91-75.9l2.88-.71.11,0c13.76-3.43,27.54-6.44,40.86-9.35,11.12-2.43,22.56-4.93,33.8-7.65l.24,0a43.17,43.17,0,0,1,9.84-1.13,52,52,0,0,1,17,3.09l.63.22c1.12.37,2.54.84,3.29,1.05,31.43,2.6,63.36,5.12,91.55,7.34l40.59,3.21c-.58-4.24-.88-8.29-1.15-12,0,0,0-.13,0-.15-.19-2.62-.41-5.6-.72-8.14A40.5,40.5,0,0,1,1222,701.07a18.58,18.58,0,0,0,4.76,1.26c22.77,3.58,42.68,17.24,59.17,40.61,10.12,14.34,19.22,32.86,27.06,55a460.65,460.65,0,0,1,18.5,72.07,39.56,39.56,0,0,1,.58,6.79,40.53,40.53,0,0,1-40.52,40.51Z"/><path class="cls-1" d="M1163.12,815.06c-.78,0-1.52,0-2.25,0-52-2.53-100.28-5-147.67-7.48a51.64,51.64,0,0,1-18.31-4.59l-.13-.05A40.51,40.51,0,0,1,969,757.82l.26-1.43a40.54,40.54,0,0,1,8.33-18.32c-1.26-3.25-2.53-6.48-3.81-9.74-.73-1.86-1.48-3.72-2.24-5.61l-.77.1a41.69,41.69,0,0,1-5.22.33,40.5,40.5,0,0,1-35.87-59.29c.1-.2.18-.4.26-.58a49.22,49.22,0,0,1,11.78-17,781,781,0,0,1,122.8-92.56,51.34,51.34,0,0,1,19.88-7.24,40.49,40.49,0,0,1,48.87-3.32c19.07,12.54,29.9,28.65,38,42.77a42.73,42.73,0,0,1,4.83,28.7c5.42,9,10.89,18.38,15.93,28.23,16.64,32.49,25.49,64.1,27.06,96.65.92,19.06-6.25,33.26-11,42.66-1.06,2.09-2.15,4.25-2.65,5.52C1199,804.31,1182.36,815.06,1163.12,815.06ZM1074.94,720,1095.3,721l29.61,1.54c-.4-2-.83-3.94-1.29-5.7-5.95-22.45-17.29-45.15-34.64-69.4-.33-.46-.66-.92-1-1.38-.82.54-1.58,1.07-2.26,1.58-11.86,8.73-23.84,17.63-35.67,26.45,5.8,15,11.71,29.94,17.89,45.5Z"/><path class="cls-1" d="M520.51,773a56.92,56.92,0,0,1-48.41-26.94c-9.92-15.81-9.5-38.08,1-54.15,12.55-19.16,28.74-31.74,48.13-37.38a146.78,146.78,0,0,1,41.42-6.22,126.2,126.2,0,0,1,22.13,1.95,68,68,0,0,1,28.11,11.93c8.21,6,12,9,20.92,16.31a40.26,40.26,0,0,1,6.63,6.88A40.5,40.5,0,0,1,663,726.2l-.22,2.09a40.52,40.52,0,0,1-31.92,35.28l-.33.08a58.66,58.66,0,0,1-9.27,1.56h-.13c-31.5,2.53-64.08,5.15-96.15,7.63C523.52,773,522,773,520.51,773Z"/><path class="cls-1" d="M903.19,667.42a40.51,40.51,0,0,1-33.34-17.48l-.28-.41a40.5,40.5,0,0,1,1.52-47.4s.34-.44.37-.49a57.65,57.65,0,0,1,5.39-6.14l7.43-7.31,1.16-1.14c5.54-5.46,11.22-11,17-16.65.84-11.78,5.79-25.68,20.2-38.88,12.58-11.53,25.26-23.45,37.52-35,15.95-15,32.43-30.47,49.09-45.51,9.78-8.83,20.61-12.38,27.77-14.73,1.28-.42,3.2-1.05,3.85-1.33l2.06-.91c19.35-15.86,38.92-32.17,57.86-47.95l.38-.32,11.74-11.38a41.14,41.14,0,0,1,69.88,35.89,66.65,66.65,0,0,1-24.31,40.52q-10.3,8.34-20.52,16.71c-15.15,12.38-30.82,25.18-46.65,37.58a64.89,64.89,0,0,1-19.54,10.18c-.79.88-1.65,1.77-2.58,2.64l-.09.09c-26,24.58-52.87,50-79.67,74.79-2.48,10.95-8.44,20.67-17.78,28.95-6.43,5.68-12.89,11.56-19.15,17.25l-.09.08c-5.59,5.09-11.37,10.34-17.19,15.52a50.88,50.88,0,0,1-15.87,9.43l-.42.16A40.36,40.36,0,0,1,903.19,667.42Z"/><path class="cls-1" d="M885.59,732.5a40.51,40.51,0,0,1-35.13-20.38l-19.81-34.58a40.51,40.51,0,0,1,29.83-60.28l28.59-3.78c5.6-.93,11.84-2,18.27-3,12-13.53,24-27.14,35.8-40.36l1.5-1.69c13.59-15.3,27.65-31.12,41.58-46.9,12.06-13.65,25.83-16.52,35.25-16.52a49.64,49.64,0,0,1,11.73,1.44c9.55,2.29,19.78,4.52,31,6.76l2-1.37,2.33-1.62.31-.21a43.35,43.35,0,0,1,25-8.08,41.18,41.18,0,0,1,8.86,1A40.5,40.5,0,0,1,1134,536.53a125.48,125.48,0,0,1,1.65,18.53c.2,33.86-20.22,45.7-29,49.22l-6.32,2.53a40.77,40.77,0,0,1-5.29,1.71c-8.79,2.22-21.78,7-26.25,10.18-3.2,2.31-7.88,5.45-13.79,9.44-31.69,21.35-51.69,36.09-59.61,43.93a40.5,40.5,0,0,1-18.52,44.61,48.86,48.86,0,0,1-18.3,6.31c-5.48.73-10.92,1.45-16.39,2.16l-51.08,7A40.75,40.75,0,0,1,885.59,732.5Z"/><path class="cls-1" d="M580,869.84a40.49,40.49,0,0,1-34.29-19L532.63,830.1c-.59-1-1.14-1.91-1.65-2.9-.67-.88-1.3-1.8-1.89-2.74L518,806.75c-.56-.89-1.08-1.8-1.57-2.72s-1.21-1.71-1.77-2.6L503.05,783c-.51-.82-1-1.65-1.45-2.5s-1.1-1.56-1.61-2.38l-10.85-17.27a40.51,40.51,0,0,1,32.53-62c232.59-10.17,460.94-49,463.22-49.35a41.08,41.08,0,0,1,6.86-.58,40.5,40.5,0,0,1,37.66,25.65l23.29,59.08a40.5,40.5,0,0,1-26.59,53.81C814,847.86,593,868.81,583.72,869.67,582.47,869.78,581.22,869.84,580,869.84Z"/><path class="cls-1" d="M1076.11,796.92c-.77,0-1.55,0-2.33-.06l-7.32-.43a40.51,40.51,0,0,1-35.32-25.58l-42-106.58a40.53,40.53,0,0,1,12.5-46.58c1.91-1.52,3.84-3,5.77-4.53a40.5,40.5,0,0,1,62.53,17.13l43.88,111.27a40.51,40.51,0,0,1-37.68,55.36Z"/><path class="cls-1" d="M1067.31,796.41c-.79,0-1.59,0-2.38-.07l-4.62-.28A40.49,40.49,0,0,1,1025,770.49L984.58,667.9a40.48,40.48,0,0,1,12.21-46.35c1.21-1,2.41-1.95,3.63-2.91a40.5,40.5,0,0,1,62.92,16.81L1105,741.05a40.51,40.51,0,0,1-37.67,55.36Z"/><path class="cls-1" d="M1055,795.67c-.82,0-1.64,0-2.46-.07l-7.18-.43c-20.25-1.26-35-16-40.61-30.08-4.72-11.82-9.39-23.79-13.9-35.38-4.39-11.28-8.93-23-13.47-34.31-.39-.65-1.12-1.76-1.67-2.61-1.07-1.63-2.4-3.67-3.79-6a40.49,40.49,0,0,1,8.39-51.57c3.43-2.94,6.94-5.9,10.46-8.8a40.5,40.5,0,0,1,63.46,16.38l38.45,97.5A40.5,40.5,0,0,1,1055,795.67Z"/><path class="cls-1" d="M1150.07,800.85c-.75,0-1.49,0-2.21-.05a40.73,40.73,0,0,1-10.2-1.84l-5-1.59a40.51,40.51,0,0,1-25.45-23.78l-59.41-150.88A40.49,40.49,0,0,1,1064,573.55l.54-.35,3.47-2.15c10.19-6.29,20.14-7,24.92-7.39l.2,0a47.42,47.42,0,0,1,14.73-2.36,46,46,0,0,1,34,15,63.38,63.38,0,0,1,8.55,12l.36.62a40.5,40.5,0,0,1,4.77,28.21c20.68,31.06,34,62.14,40.78,94.74,1.08,5.23,1.67,10,2.19,14.22.3,2.48.59,4.81.92,6.69,3.4,19.39-3.84,34.15-7.74,42.07l-.53,1.09c-8.95,18.39-27.69,24.92-41,24.92Zm-.67-192.57Z"/><path class="cls-1" d="M1120.33,799.33c-.7,0-1.4,0-2.11-.05q-17-.88-34-1.84a40.5,40.5,0,0,1-35.42-25.58l-44.56-113A40.49,40.49,0,0,1,1015.38,607c9.1-6.87,18.42-13.55,27.7-19.86a40.5,40.5,0,0,1,60.45,18.64L1158,744a40.49,40.49,0,0,1-37.68,55.36Z"/><path class="cls-1" d="M626,986.48a40.51,40.51,0,0,1-39.41-49.88l3.81-16a40.5,40.5,0,0,1,39.4-31.12l671.64,2.06a40.52,40.52,0,0,1,36.2,22.59c.44.89.89,1.78,1.36,2.67,1.43,2.72,2.78,5.4,4,7.77.5,1,1,2,1.48,2.93a40.5,40.5,0,0,1-36.09,58.87Z"/><path class="cls-1" d="M637.34,763.38a53.93,53.93,0,0,1-32.5-11.13c-6.44-5-12.73-10.1-18.81-15-5.37-4.36-10.5-8.52-15.64-12.54-1.73-.16-3.43-.23-5.1-.23a56.87,56.87,0,0,0-18.59,3.21,40.5,40.5,0,0,1-45-63.3c.34-.43,33.7-43,72.38-87.33,72.69-83.36,99.95-100.29,118.58-106.18a40.85,40.85,0,0,1,18.13-1.44A49,49,0,0,1,727,474.74c32.52-17.9,87-44.61,155.17-49.32,10.23-15.47,26.32-24.14,45.38-24.14a68.15,68.15,0,0,1,8.33.53c5.35.67,11.47.84,18.56,1.05,3.59.1,7.31.21,11.28.39a40.51,40.51,0,0,1,28.7,67.06L989.48,476c-5,5.73-9.62,11.14-14.7,16.61-11.23,12.07-25.24,13.62-29.84,14.13l-.28,0a217.49,217.49,0,0,0-50,11.84c-5.54,2.07-10.6,5.6-16,11.11-18.93,19.56-38.45,39.9-59.18,61.69,25.09,2.26,49.88,4.34,72.72,6.23,4.24-3.74,8.47-7.5,12.62-11.19s8.52-7.58,12.87-11.41c1.52-10.08,6.39-21.54,18-32.48,20.2-18.94,40.62-38.41,60.37-57.24q10.68-10.18,21.37-20.36c1.55-1.48,3.1-2.91,4.77-4.45l2.16-2a40.47,40.47,0,0,1,48.4-5c16.77,10.06,27.13,23.48,35.45,34.26,4.42,5.72,8.24,10.66,11.81,13.58a40.51,40.51,0,0,1-2.56,64.7l-6,4.16c-5.71,4-11.1,7.76-17,11.49a45.82,45.82,0,0,1-24.7,7h0a55.81,55.81,0,0,1-10.86-1.1c-9.57-1.92-19-3.82-28.43-5.81-27.44,31-50.94,57.3-73.16,82a58.38,58.38,0,0,1-32,17.9q-4.43.84-8.87,1.65a40.51,40.51,0,0,1-33.49,52.16l-2.12.28c-1.65.21-3,.39-4.4.55l-29.33,3.39c-67,7.75-136.24,15.76-204.41,23.47A49.84,49.84,0,0,1,637.34,763.38Z"/><path class="cls-1" d="M630.45,959.5a40.51,40.51,0,0,1-34.92-20.12l-44.72-76.79a40.49,40.49,0,0,1,29.57-60.51l8.27-1.14.65-.09c9-1.25,17.45-2.42,26.55-3.28,52.23-4.93,103.86-14.17,152.26-23.21,25.24-4.72,51.51-9.88,74.69-14.44,14.41-2.83,29.74-5.84,45-8.78l.13,0a49.36,49.36,0,0,1,9.09-.85,46,46,0,0,1,20.07,4.52c27,13.23,55.14,18.77,89.09,23,1.35.17,2.69.41,4,.71,14,3.2,30.14,6.41,48,9.53,49.26,8.59,115.17,8.92,154.55,9.12,13.46.07,23.18.12,29.64.48,32.4,1.8,53.24,32.46,69.35,62.22a493,493,0,0,1,21.35,45.23,40.49,40.49,0,0,1-37.54,55.72Z"/><path class="cls-1" d="M762.81,952.37c-.57,0-1.14,0-1.72,0L643.34,947.4a40.5,40.5,0,0,1-32.74-19.13l-35.3-57a40.5,40.5,0,0,1,62.2-50.82l36.72,34.59L769.84,872a40.5,40.5,0,0,1-7,80.39Z"/><path class="cls-1" d="M956.08,722.42A40.51,40.51,0,0,1,917.42,694a77.48,77.48,0,0,1,4.78-58.45c10.2-20.07,37.48-40.86,87.52-74.58,5.12-3.45,9.54-6.43,11.72-8,9.77-7,22-12.48,32.4-16.32a40.5,40.5,0,0,1,47.68-34,42.16,42.16,0,0,1,27.22,18.39q4.11,6.12,8.38,12.42l3.8,5.62a40.5,40.5,0,0,1-5,51.41l-3.92,3.9c-5.17,5.15-10,10-15.32,15a40.13,40.13,0,0,1-6.68,5,43.06,43.06,0,0,1-17.24,5.81l-2.25.49c-28.38,19-58,39.62-84.22,63.31l-.48.43c-5.33,4.82-10.87,9.82-12.27,13.11a40.45,40.45,0,0,1-12,15.83,42.49,42.49,0,0,1-5.52,3.74A40.44,40.44,0,0,1,956.08,722.42Z"/><path class="cls-1" d="M730.93,897.69c-50.39,0-87-4.05-103-11.4a40.5,40.5,0,0,1,14.34-77.23c1.14-.07,117.39-7.87,243.19-43.55a40.45,40.45,0,0,1,24.64.81c71.78,25.56,173.2,33.82,211.07,33.82,1.24,0,2.36,0,3.39,0h.82a40.5,40.5,0,0,1,5.77,80.59c-3.55.51-87.77,12.51-173.18,12.51a657.36,657.36,0,0,1-72.8-3.64C824.93,895,773.05,897.69,730.93,897.69Z"/><path class="cls-1" d="M533.6,729.83a40.5,40.5,0,0,1-37.1-56.7c.4-.91.73-1.69,1-2.4.77-1.79,1.56-3.64,2.56-5.7,19.06-39.27,44.11-77.46,78.79-120.1,32.69-40.19,66.36-72.84,102.93-99.82,3.56-2.63,14.43-10.64,30.07-10.64a46.42,46.42,0,0,1,14.39,2.31c22-8.35,43.73-11,62.8-12.84,16.42-1.56,33.1-2.32,51-2.32,19.54,0,40.22.92,63.22,2.83a40.31,40.31,0,0,1,12.46,3.07l.93.39a40.51,40.51,0,0,1-15.47,77.8c-65.59.54-118.29,30.36-146.6,46.39-16.32,9.23-26.16,14.8-39.68,14.8a43.58,43.58,0,0,1-5.36-.33,47.23,47.23,0,0,1-11.43-2.9c-13.3,12.22-34.26,33.48-66.16,70.26-35.73,41.2-66.17,80-66.47,80.38A40.5,40.5,0,0,1,533.6,729.83Z"/><path class="cls-1" d="M891.24,667.81a40.31,40.31,0,0,1-4.91-.29l-128-15.65a42.05,42.05,0,0,1-34.56-27.43,1.22,1.22,0,0,1-.07-.17,42,42,0,0,1,9-43.3l.48-.5c9.47-10,19-20,28.23-29.63l.59-.62c18.06-18.9,36.65-38.37,54.79-57.8-12.67.55-25.15,1.6-37.3,3.15-14.78,1.89-26,4.9-35.38,9.49a40.35,40.35,0,0,1-10.64,3.48,42.7,42.7,0,0,1-7.69.68,46.29,46.29,0,0,1-13.58-2.06,54,54,0,0,1-16.45-8.73l-.1-.07c-6.89-5.14-11.71-10.17-15.16-15.85a40.5,40.5,0,0,1,3.5-47,54.14,54.14,0,0,1,15.54-12.42,40.77,40.77,0,0,1,8.13-3.47l474.79-143.79.92-.27c6.9-1.91,13.71-3.71,20.25-5.34a40.51,40.51,0,0,1,48.2,52.25l-1.37,4.06c-1.5,4.4-3.22,9.45-5.08,14.53a40.56,40.56,0,0,1-6.21,11.13,48.05,48.05,0,0,1-6.81,7l-.38.33c-4.85,4.27-9.76,8.54-14.36,12.52-6.5,5.64-13.23,11.49-19.83,17.4a131.08,131.08,0,0,1-20.14,14.83,40.47,40.47,0,0,1-14.33,28.31c-2.81,2.36-6.28,4.72-13.25,9.4-2.17,1.46-5.67,3.82-7.14,4.86-17.18,14.51-34.93,29.49-53.19,43.75-8.82,6.89-18,9.92-24.79,12.14-1.88.62-4,1.3-5,1.74-1.17.52-1.88.86-2.32,1.08-14.53,13.58-29.27,27.48-43.54,40.92l-1.38,1.31c-12.88,12.14-26.13,24.62-39.33,37-.53,10.88-4.67,24.12-17.85,36.59-6.13,5.8-12.38,12.29-18.43,18.56L937,640c-4.29,4.46-9.17,9.53-14.17,14.48a46.32,46.32,0,0,1-30.53,13.35Z"/><path class="cls-1" d="M1004.35,473.05a40.51,40.51,0,0,1-20.08-75.7c18.93-10.78,114.15-64.71,140.63-72.82,9-3.62,37.89-24.86,62.12-45.7a40.5,40.5,0,0,1,64.8,43.63c-2,6-4.12,12.23-6.46,18.61a40.36,40.36,0,0,1-6.21,11.14,48.05,48.05,0,0,1-6.81,7l-.38.32c-4.85,4.28-9.76,8.55-14.36,12.53-6.5,5.65-13.23,11.49-19.83,17.4a130.67,130.67,0,0,1-38.18,23.81l-140,56.85A40.42,40.42,0,0,1,1004.35,473.05Z"/><path class="cls-1" d="M1291.54,917.32a40.52,40.52,0,0,1-39.45-31.53c-8.19-36-18.72-58.15-27.83-71.65-14.7,23.21-43.94,25.19-70.29,25.19-37.19,0-85-5.93-103.84-8.48-16.52-2.23-32.2-4.74-44.15-7-5-1-9.33-1.89-13.09-2.8-1.92.34-3.72.6-5.35.85-6.73,1-15.7,2-26.67,3-18.72,1.73-38.34,3-42.08,3.2-.84.06-1.67.08-2.51.08a40.42,40.42,0,0,1-16.24-3.4l-1.06-.48a40.5,40.5,0,0,1,7.63-76l2.87-.71.12,0c13.76-3.43,27.54-6.44,40.86-9.36,10.6-2.31,22.56-4.92,33.8-7.64l.24,0a43.17,43.17,0,0,1,9.84-1.13,52,52,0,0,1,17,3.09l.64.22c1.11.37,2.53.84,3.28,1.05,31.41,2.6,63.35,5.11,91.55,7.34l40.59,3.21c-.58-4.24-.88-8.29-1.15-12,0,0,0-.13,0-.15-.19-2.62-.41-5.6-.72-8.14A40.5,40.5,0,0,1,1222,701.07a18.58,18.58,0,0,0,4.76,1.26c22.77,3.58,42.68,17.24,59.17,40.61,10.12,14.34,19.22,32.86,27.06,55a460,460,0,0,1,18.57,72.49,40.54,40.54,0,0,1-40,46.86Z"/><path class="cls-1" d="M1295.54,960.8A40.52,40.52,0,0,1,1258,935.49h0c-9-22.13-21.89-46.61-29.91-57.21-4.5,0-9.92-.08-15.76-.11-41.92-.22-112.09-.57-168.06-10.33-19.27-3.36-36.83-6.85-52.19-10.37a40.5,40.5,0,0,1,9-80,41.59,41.59,0,0,1,5.08.31c7.46.94,15.6,1.86,26.41,3,52.39,5.52,107.72,8.55,173.35,9.47,1.46-1.53,3-3.17,4.53-4.86,1-1.08,1.94-2.12,2.9-3.15a40.51,40.51,0,0,1,29.68-13c.74,0,1.47,0,2.21.06a40.51,40.51,0,0,1,30.3,16.28c16.7,22.46,28.74,47.74,40.38,72.19a276.49,276.49,0,0,1,16.47,43.86l2.15,7.64a40.54,40.54,0,0,1-39,51.48Z"/><path class="cls-2" d="M610.93,1094.76a32.41,32.41,0,0,1-32.17-36.29l12.67-104.88a32.38,32.38,0,0,1,32.13-28.51l85.22-.09a43.51,43.51,0,0,1,6.9.55,33.31,33.31,0,0,1,6-.57l109.78-.11a41.8,41.8,0,0,1,17.61,3.8,32.39,32.39,0,0,1,15.28-3.84l53.19-.05a39.85,39.85,0,0,1,8.37.88,32.25,32.25,0,0,1,7.59-.9l29.23,0c.38,0,.76,0,1.14,0s.79,0,1.19,0l57.89-.07a39.93,39.93,0,0,1,12,1.83,41.24,41.24,0,0,1,12.27-1.85l36.42,0a32.39,32.39,0,0,1,10.47,1.74,32.25,32.25,0,0,1,10.52-1.76l28.91,0a31.73,31.73,0,0,1,5.26.43,33.53,33.53,0,0,1,5.33-.45l28.77,0c.6,0,1.2,0,1.8,0s1.23,0,1.85,0l28.05,0a32.69,32.69,0,0,1,5.06.4,31.94,31.94,0,0,1,5.11-.41l28.91,0,1.06,0c.37,0,.73,0,1.1,0l54.9-.06A40.34,40.34,0,0,1,1336.51,945c4.2,7.48,6.24,16.18,6.25,26.61a110.31,110.31,0,0,1-.86,13.33l-1.12,9.44a71.63,71.63,0,0,1-1.55,8.39c-.33,1.34-.69,2.65-1.06,3.93a64.64,64.64,0,0,1,.41,7.25c0,1.88-.09,3.71-.27,5.6l-.19,2.37c0,.47-.08.94-.14,1.41l-2.23,18.42c-1.29,10.78-3.76,19.76-7.55,27.39-7.71,15.57-22.13,24.89-38.56,24.91l-56.46.06-1,0-1.06,0-54.2.06a42.53,42.53,0,0,1-8.88-.92,32.66,32.66,0,0,1-7.7.94l-28.77,0a31.85,31.85,0,0,1-5.27-.44,33.3,33.3,0,0,1-5.32.45l-28.91,0a32.34,32.34,0,0,1-10.47-1.74,32.25,32.25,0,0,1-10.52,1.76l-36.12,0a40.77,40.77,0,0,1-12.09-1.82,41.23,41.23,0,0,1-12.24,1.84l-58.21.07-1.14,0-1.16,0-60.7.06a32.21,32.21,0,0,1-4.53-.31,32.63,32.63,0,0,1-4.56.32l-28.55,0a32.32,32.32,0,0,1-14.61-3.48,41.6,41.6,0,0,1-16.79,3.52l-56.47.06a32.16,32.16,0,0,1-6.06-.58,31.85,31.85,0,0,1-6.13.59l-29.83,0a32.05,32.05,0,0,1-6.36-.63,32.26,32.26,0,0,1-6.41.64l-28.05,0c-1.15,0-2.28-.06-3.4-.17a33,33,0,0,1-3.46.18l-28.2,0a32.32,32.32,0,0,1-3.41-.18,32.59,32.59,0,0,1-3.44.19Z"/><path class="cls-2" d="M614,1096.12a32.39,32.39,0,0,1-32.17-36.28l12-99.48A32.42,32.42,0,0,1,626,931.84l82.84-.09a39.61,39.61,0,0,1,8.05.82,32.34,32.34,0,0,1,7.27-.83l49.95-.06c.81,0,1.63,0,2.44.1s1.65-.1,2.48-.1l52.51-.06a38.9,38.9,0,0,1,18.58,4.62,32.22,32.22,0,0,1,16.71-4.65l50.8-.06a37,37,0,0,1,9.46,1.23,32.62,32.62,0,0,1,8.88-1.25l23.79,0a30.89,30.89,0,0,1,3.86.23,31.74,31.74,0,0,1,3.92-.24l55.5-.06a37.18,37.18,0,0,1,12,2,38.81,38.81,0,0,1,12.27-2l33.38,0a32.2,32.2,0,0,1,13.19,2.81,32.41,32.41,0,0,1,13.23-2.84l23.47,0a32.33,32.33,0,0,1,8,1,31.92,31.92,0,0,1,8-1l23.33,0a32.39,32.39,0,0,1,4.52.32,32.89,32.89,0,0,1,4.57-.32l22.62,0a32,32,0,0,1,7.77.95,32.73,32.73,0,0,1,7.83-1l23.47,0a31.7,31.7,0,0,1,3.78.22,32.12,32.12,0,0,1,3.82-.23l52.51,0a37.67,37.67,0,0,1,33.38,19.25c4,7.06,5.9,15.33,5.9,25.29a108.06,108.06,0,0,1-.84,13l-1.12,9.48a69.62,69.62,0,0,1-1.49,8.06c-.37,1.5-.77,3-1.19,4.36a59.32,59.32,0,0,1,.45,7.48c0,1.78-.08,3.56-.25,5.36l-.18,2.34c0,.47-.09.94-.14,1.41,0,0-2.21,18.2-2.22,18.23-1.25,10.55-3.64,19.27-7.29,26.64-7.25,14.64-20.76,23.4-36.14,23.41l-53.43.06a33,33,0,0,0-7.52,0l-51.81,0a39.52,39.52,0,0,1-10-1.25,32.23,32.23,0,0,1-9,1.27l-23.32,0a32.41,32.41,0,0,1-8-1,32.8,32.8,0,0,1-8,1l-23.47,0a32.42,32.42,0,0,1-13.19-2.8,32.36,32.36,0,0,1-13.23,2.83l-33.73,0a37.91,37.91,0,0,1-12.09-2,38.69,38.69,0,0,1-12.23,2l-55.17.06a32.71,32.71,0,0,1-3.84-.23,31.41,31.41,0,0,1-3.9.24l-23.76,0a30.87,30.87,0,0,1-3.34-.17,31.61,31.61,0,0,1-3.38.18l-25.42,0a32.41,32.41,0,0,1-6.93-.75,31.92,31.92,0,0,1-7,.76l-23.11,0a32.44,32.44,0,0,1-16.34-4.42,38.7,38.7,0,0,1-18.12,4.45l-53.41.06a32.33,32.33,0,0,1-8.79-1.22,32.32,32.32,0,0,1-8.84,1.24l-24.4,0a32.43,32.43,0,0,1-9.07-1.29,32.45,32.45,0,0,1-9.13,1.31l-22.62,0a32.06,32.06,0,0,1-6.12-.59,32.19,32.19,0,0,1-6.17.6l-22.76,0a32,32,0,0,1-6.12-.59,32.27,32.27,0,0,1-6.17.6Z"/><path class="cls-2" d="M883.68,1048.15a32.4,32.4,0,0,1-32.17-36.26l.17-1.42a32.4,32.4,0,0,1,32.17-28.55h13.34a32.41,32.41,0,0,1,23.43,54.79,36.57,36.57,0,0,1-26.6,11.43Z"/><path class="cls-2" d="M1291.57,909.24a32.4,32.4,0,0,1-30-20.11c-1.5-3.64-3-6.87-4.85-10.62l-.2-.41c-1.92-4-4.1-8.54-6.42-14.08-2.79-6.69-5.84-13.44-9.08-20.16a39.48,39.48,0,0,1-26.48,9.74h-1.08c-54.78-1.05-119.83-3.11-187-10.47-35-3.84-72.16-8.55-108.77-20.13a111.12,111.12,0,0,1-15.46-6.13,32.4,32.4,0,0,1,6.3-60.73l2.94-.73c13.75-3.42,27.48-6.42,40.75-9.33,10.62-2.32,22.62-4.94,33.95-7.67l.2,0a34.82,34.82,0,0,1,8-.91,43.36,43.36,0,0,1,14.37,2.67l.66.22c1.64.54,3.81,1.26,4.58,1.39,31.63,2.62,63.81,5.16,92.19,7.39q25.44,2,50.87,4l.08-.17c-.12-.86-.34-2.17-.73-4.06a133.13,133.13,0,0,1-2.06-17.28s0-.12,0-.14c-.2-2.72-.42-5.8-.77-8.56A32.4,32.4,0,0,1,1214.94,705c.56,1.18,1.87,4,10.58,5.32,33.67,5.28,60.54,35.67,79.85,90.33a452.82,452.82,0,0,1,18.16,70.72,33,33,0,0,1,.46,5.44,32.4,32.4,0,0,1-26.14,31.79A32,32,0,0,1,1291.57,909.24Z"/><path class="cls-2" d="M1163.12,807c-.64,0-1.26,0-1.85,0-52-2.53-100.25-5-147.64-7.48a44.05,44.05,0,0,1-15.53-3.93l-.35-.15A32.41,32.41,0,0,1,977,759.24l.26-1.44a32.33,32.33,0,0,1,9.74-18c-1.89-4.83-3.76-9.63-5.66-14.46-1.34-3.41-2.72-6.8-4.17-10.38l-.45-1.09-7,.88a30.94,30.94,0,0,1-4.17.27,32.4,32.4,0,0,1-28.63-47.57c.16-.31.29-.62.41-.9a41.17,41.17,0,0,1,9.86-14.34,774.23,774.23,0,0,1,121.53-91.6,42.46,42.46,0,0,1,19.21-6.38,32.4,32.4,0,0,1,40.88-4.33c17.64,11.6,27.8,26.74,35.41,40a34.32,34.32,0,0,1,3.24,26.08c5.89,9.78,11.9,19.89,17.33,30.51,16.1,31.44,24.66,62,26.18,93.35.82,16.93-5.78,30-10.14,38.62-1.2,2.36-2.33,4.6-3,6.24C1192.63,798.24,1179,807,1163.12,807Zm-100.76-79.5,12.16.61,20.36,1.06c13.07.69,26.43,1.38,39.78,2-.06-.3-.11-.61-.16-.91-.94-5.59-1.84-10.87-3-15.46-6.21-23.41-18-47-35.89-72a57.1,57.1,0,0,1-4.83-8l-1.64,1c-3,1.9-5.85,3.69-8.14,5.37-13.53,10-27.21,20.14-40.63,30.16,6.83,17.83,13.77,35.31,21.1,53.78Z"/><path class="cls-2" d="M520.51,764.93A48.84,48.84,0,0,1,479,741.78c-9.25-14.74-6.53-34,.94-45.4,11.46-17.5,26.13-29,43.61-34a138.64,138.64,0,0,1,39.16-5.9,118.84,118.84,0,0,1,20.71,1.82,60.61,60.61,0,0,1,24.74,10.5c8.12,6,11.69,8.76,20.58,16a32.28,32.28,0,0,1,6.44,7.1A32.42,32.42,0,0,1,655,725.33l-.23,2.09a32.41,32.41,0,0,1-25.61,28.24l-.47.11a50.2,50.2,0,0,1-8,1.36c-31.59,2.55-64.18,5.17-96.26,7.65C523.1,764.88,521.8,764.93,520.51,764.93Z"/><path class="cls-2" d="M903.17,659.33a32.4,32.4,0,0,1-26.61-13.93l-.27-.4a32.4,32.4,0,0,1,1.21-37.92l.37-.48a48.75,48.75,0,0,1,4.64-5.31l7.48-7.35,1.13-1.12c6.26-6.16,12.67-12.49,19.27-18.78,0-11.16,4.16-24.1,17.75-36.54,12.61-11.56,25.31-23.5,37.6-35.05,15.92-15,32.37-30.42,49-45.39,8.52-7.69,18-10.79,24.87-13.05,1.71-.56,3.64-1.2,4.59-1.62l.81-.35c.75-.33,1.7-.75,2.31-1,19.64-16.09,39.51-32.64,58.73-48.66l.61-.51,12-11.6a33,33,0,0,1,56.28,28.62,58.6,58.6,0,0,1-21.45,35.69q-10.32,8.35-20.54,16.73c-15.13,12.35-30.77,25.13-46.53,37.48-6.78,5.32-14,7.89-19.21,9.56a36.87,36.87,0,0,1-3.46,3.73l-.11.11c-26.62,25.16-54.13,51.16-81.54,76.52-1.75,10.25-7,19.33-15.72,27-6.45,5.71-12.94,11.61-19.22,17.32l-.09.08c-5.57,5.07-11.34,10.31-17.12,15.46a42.76,42.76,0,0,1-13.47,7.94l-.54.22A32.24,32.24,0,0,1,903.17,659.33Z"/><path class="cls-2" d="M885.59,724.4a32.41,32.41,0,0,1-28.1-16.3l-19.81-34.58a32.41,32.41,0,0,1,23.87-48.23l28.71-3.8c6.46-1.07,13.76-2.28,21.23-3.46,12.57-14.24,25.34-28.6,37.72-42.53l1.49-1.68c13.59-15.3,27.66-31.13,41.59-46.92,10.06-11.39,21.42-13.77,29.18-13.77a41.57,41.57,0,0,1,9.84,1.21c10.6,2.53,22,5,34.67,7.49,1.55-1,3.18-2.17,4.85-3.33l2.32-1.61.29-.2a35.4,35.4,0,0,1,20.38-6.64,33.39,33.39,0,0,1,7.12.77,32.43,32.43,0,0,1,25,26.95,119.13,119.13,0,0,1,1.55,17.34c.17,27.84-14.91,38-23.92,41.65l-6.32,2.53a33.11,33.11,0,0,1-4.23,1.37c-8.1,2-23,7.1-29,11.47-3.1,2.23-7.72,5.34-13.58,9.29-36.35,24.49-57.72,40.59-63.56,47.87a4.85,4.85,0,0,0,.12,3,32.41,32.41,0,0,1-14.31,37.47A41.06,41.06,0,0,1,957.46,715c-5.47.73-10.9,1.45-16.36,2.16l-51.11,7A32.64,32.64,0,0,1,885.59,724.4Z"/><path class="cls-2" d="M580,861.74a32.41,32.41,0,0,1-27.43-15.17l-13.06-20.78q-.88-1.42-1.62-2.91a33.33,33.33,0,0,1-1.92-2.73l-11.12-17.71a30.86,30.86,0,0,1-1.54-2.74,31.24,31.24,0,0,1-1.8-2.58l-11.58-18.43c-.51-.82-1-1.66-1.42-2.51s-1.13-1.55-1.64-2.37L496,756.55a32.41,32.41,0,0,1,26-49.61C755,696.76,984,657.88,986.26,657.48a33,33,0,0,1,5.49-.46,32.41,32.41,0,0,1,30.13,20.52l23.28,59.08a32.41,32.41,0,0,1-21.27,43C812.47,839.86,592.25,860.74,583,861.6,582,861.69,581,861.74,580,861.74Z"/><path class="cls-2" d="M1076.11,788.82c-.62,0-1.24,0-1.86-.05l-7.31-.43a32.4,32.4,0,0,1-28.26-20.46l-42-106.58a32.41,32.41,0,0,1,10-37.26q2.85-2.26,5.71-4.48a32.39,32.39,0,0,1,50,13.7l43.88,111.27a32.4,32.4,0,0,1-30.14,44.29Z"/><path class="cls-2" d="M1067.3,788.31c-.63,0-1.26,0-1.9-.06l-4.61-.28a32.39,32.39,0,0,1-28.23-20.46L992.11,664.93a32.41,32.41,0,0,1,9.77-37.08l3.59-2.88a32.4,32.4,0,0,1,50.33,13.45L1097.44,744a32.4,32.4,0,0,1-30.14,44.29Z"/><path class="cls-2" d="M1055,787.57c-.65,0-1.31,0-2-.06l-7.17-.43c-16.63-1-29.07-13.68-33.59-25-4.71-11.79-9.36-23.75-13.87-35.32s-9.09-23.36-13.72-34.93c-.37-.69-1.41-2.29-2.19-3.47-1.08-1.66-2.31-3.55-3.62-5.73a32.4,32.4,0,0,1,6.71-41.26c3.39-2.91,6.87-5.83,10.34-8.7a32.45,32.45,0,0,1,20.63-7.41,32,32,0,0,1,8.1,1,32.38,32.38,0,0,1,22,19.48l38.45,97.5A32.4,32.4,0,0,1,1055,787.57Z"/><path class="cls-2" d="M1150.07,792.75c-.61,0-1.21,0-1.8,0a32.41,32.41,0,0,1-8.16-1.48l-5-1.59a32.39,32.39,0,0,1-20.37-19l-59.41-150.88a32.42,32.42,0,0,1,13-39.34l.54-.34,3.41-2.12c8.52-5.26,16.83-5.88,21.29-6.21l.87-.07.47-.07a39.71,39.71,0,0,1,13-2.22,38,38,0,0,1,28,12.43,56.55,56.55,0,0,1,7.47,10.54l.37.65a32.37,32.37,0,0,1,3,25.68c21.23,31.15,34.85,62.23,41.58,94.82,1,4.91,1.58,9.51,2.08,13.57.32,2.58.62,5,1,7.1,2.95,16.79-3.54,30-7,37.1l-.54,1.12c-6.85,14.06-21.88,20.36-33.74,20.36Zm-7.68-180.41Z"/><path class="cls-2" d="M1120.33,791.23c-.56,0-1.12,0-1.69,0q-17-.88-33.94-1.84a32.38,32.38,0,0,1-28.33-20.46l-44.76-113.51c-.07-.12-.14-.24-.2-.36a32.4,32.4,0,0,1,8.85-41.52c9-6.78,18.2-13.39,27.37-19.62A32.39,32.39,0,0,1,1096,608.79L1150.47,747a32.39,32.39,0,0,1-30.14,44.28Z"/><path class="cls-2" d="M626,978.38a32.41,32.41,0,0,1-31.53-39.91l3.81-16a32.4,32.4,0,0,1,31.52-24.9l671.61,2.06a32.41,32.41,0,0,1,29,18.07c.47,1,1,1.91,1.46,2.86,1.4,2.66,2.68,5.19,3.91,7.64l1.5,3a32.4,32.4,0,0,1-28.88,47.1Z"/><path class="cls-2" d="M637.34,755.28a45.72,45.72,0,0,1-27.53-9.42c-6.37-5-12.63-10-18.67-14.93s-11.77-9.55-17.59-14.07a69.2,69.2,0,0,0-8.26-.51A64.65,64.65,0,0,0,544.08,720a32.41,32.41,0,0,1-36-50.65c.33-.42,33.54-42.76,72.1-87,71.57-82.08,98.25-98.52,114.92-103.78a32.32,32.32,0,0,1,9.75-1.5,31.54,31.54,0,0,1,4.75.35,40.9,40.9,0,0,1,17.15,6.66c32-17.84,88.7-46.91,160.06-50.85C895.4,418,910,409.38,927.5,409.38a59.78,59.78,0,0,1,7.33.47c5.73.71,12,.9,19.32,1.11,3.56.1,7.24.21,11.15.39a32.4,32.4,0,0,1,23,53.64l-4.92,5.67c-4.89,5.67-9.52,11-14.5,16.39-9.17,9.86-20.52,11.12-24.79,11.59l-.35,0A225.2,225.2,0,0,0,891.87,511c-6.71,2.5-12.72,6.65-18.94,13.07-22.41,23.15-45.65,47.41-70.75,73.86,32,3,64.09,5.67,92.88,8,5.11-4.48,10.23-9,15.23-13.48s10-8.9,15.11-13.39c.77-9.52,4.91-20.27,16-30.65,20.21-19,40.65-38.45,60.42-57.29q10.66-10.19,21.35-20.35c1.52-1.45,3.05-2.86,4.69-4.38l2.17-2a32.39,32.39,0,0,1,38.73-4c15.45,9.28,25.29,22,33.2,32.27,4.73,6.12,8.81,11.4,13.1,14.9a32.41,32.41,0,0,1-2,51.77c-2.08,1.43-4.07,2.83-6,4.18-5.63,3.94-11,7.66-16.67,11.3A37.77,37.77,0,0,1,1070,580.5a48,48,0,0,1-9.27-.94c-11.1-2.23-22-4.44-33-6.77-28.76,32.49-53.19,59.86-76.24,85.46A50.14,50.14,0,0,1,924,673.61c-6.35,1.2-12.73,2.36-19.1,3.49l1.12,1.95a32.41,32.41,0,0,1-23.92,48.3l-2.14.28-4.27.54-29.32,3.39c-67,7.74-136.24,15.75-204.4,23.46A40.86,40.86,0,0,1,637.34,755.28Z"/><path class="cls-2" d="M630.46,951.4a32.38,32.38,0,0,1-27.93-16.1l-44.72-76.78a32.41,32.41,0,0,1,23.66-48.42c2.79-.37,5.55-.76,8.3-1.14l.63-.09c8.89-1.23,17.28-2.39,26.21-3.23,52.57-5,104.41-14.24,153-23.32,25.26-4.72,51.56-9.89,74.76-14.45,14.37-2.82,29.68-5.83,44.94-8.78l.1,0a40.81,40.81,0,0,1,7.58-.71,37.88,37.88,0,0,1,16.52,3.7c29.65,14.53,61.56,20,91.64,23.77a31.71,31.71,0,0,1,3.21.57c14.12,3.23,30.42,6.47,48.45,9.61,49.93,8.71,116.27,9,155.9,9.25,13.34.06,23,.11,29.23.46,22.61,1.25,41.35,18.59,62.67,58a488.63,488.63,0,0,1,21,44.43,32.41,32.41,0,0,1-30,44.58Z"/><path class="cls-2" d="M762.81,944.27l-1.38,0-117.75-4.93A32.42,32.42,0,0,1,617.49,924l-35.3-57A32.4,32.4,0,0,1,632,826.39l38.48,36.24,98,17.33a32.4,32.4,0,0,1-5.62,64.31Z"/><path class="cls-2" d="M956.08,714.32a32.38,32.38,0,0,1-30.93-22.75,69.34,69.34,0,0,1,4.28-52.36c9.39-18.49,35.93-38.59,84.81-71.53,5.18-3.49,9.65-6.5,11.93-8.14,10.67-7.68,24.58-13.38,35.35-17A32.44,32.44,0,0,1,1100,510.63a34.13,34.13,0,0,1,22,14.92c2.76,4.12,5.57,8.27,8.43,12.5l3.79,5.59a32.41,32.41,0,0,1-4,41.13l-3.92,3.9c-5.12,5.11-10,9.93-15.13,14.77a31.88,31.88,0,0,1-5.34,4,34.78,34.78,0,0,1-14.44,4.74c-1.45.35-2.74.6-3.85.82l-.18,0c-29,19.46-59.45,40.51-86.48,64.93l-.48.42c-6.54,5.91-12.2,11-14.3,16a32.3,32.3,0,0,1-9.58,12.66,34,34,0,0,1-4.46,3A32.35,32.35,0,0,1,956.08,714.32Z"/><path class="cls-2" d="M730.93,889.59c-68.94,0-92.61-7.46-99.59-10.66a32.4,32.4,0,0,1,11.47-61.78C644,817.07,761,809.24,887.7,773.3a32.37,32.37,0,0,1,19.71.65c72.78,25.91,175.47,34.3,213.79,34.3,1.29,0,2.48,0,3.55,0h.66a32.4,32.4,0,0,1,4.61,64.47c-3.52.51-87.19,12.43-172,12.43a645.66,645.66,0,0,1-72.7-3.68C824.92,886.84,773,889.59,730.93,889.59Z"/><path class="cls-2" d="M533.6,721.73a32.41,32.41,0,0,1-29.68-45.36c.41-.93.75-1.74,1.06-2.45.76-1.78,1.48-3.46,2.39-5.34,18.79-38.71,43.52-76.4,77.79-118.54,32.26-39.65,65.44-71.84,101.46-98.41,3.35-2.48,12.28-9.06,25.26-9.06a38.75,38.75,0,0,1,14.49,2.86c22-8.84,44.14-11.58,63.47-13.42,16.17-1.54,32.59-2.29,50.23-2.29,19.31,0,39.77.91,62.55,2.8a32.7,32.7,0,0,1,10,2.46l.93.39a32.41,32.41,0,0,1-12.38,62.24c-67.68.55-121.57,31-150.52,47.44-15.67,8.87-24.31,13.75-35.69,13.75a35,35,0,0,1-4.35-.27,39.07,39.07,0,0,1-13.92-4.42c-13.34,11.83-35.17,33.51-69.55,73.08-36.46,41.95-67.67,81.72-68,82.12A32.39,32.39,0,0,1,533.6,721.73Z"/><path class="cls-2" d="M891.24,659.71a30.38,30.38,0,0,1-3.93-.24l-128-15.65a34,34,0,0,1-27.94-22.17.69.69,0,0,0,0-.13,34,34,0,0,1,7.26-35l.42-.43c9.47-10,19-20,28.25-29.65l.59-.62c20.77-21.75,42.24-44.23,62.94-66.57,1.72-1.86,3.49-3.65,5.31-5.39a472,472,0,0,0-57.65,3.68c-15.69,2-27.74,5.26-37.92,10.24a32.18,32.18,0,0,1-8.51,2.79,34.92,34.92,0,0,1-6.25.55,38,38,0,0,1-11.26-1.72,46.46,46.46,0,0,1-14-7.48c-6.11-4.55-10.27-8.86-13.16-13.62a32.4,32.4,0,0,1,2.8-37.58,46.25,46.25,0,0,1,13.29-10.55,33,33,0,0,1,6.51-2.78L1184.78,283.6l.75-.21c6.83-1.89,13.57-3.67,20-5.29a32.4,32.4,0,0,1,38.55,41.8l-1.37,4.06c-1.47,4.35-3.18,9.34-5,14.34a32.41,32.41,0,0,1-5,8.9,40.51,40.51,0,0,1-5.72,5.81l-.44.37c-4.83,4.26-9.74,8.53-14.34,12.51-6.52,5.67-13.28,11.53-19.92,17.48a122.24,122.24,0,0,1-22.81,16.16,32.37,32.37,0,0,1-11.48,26.82c-2.38,2-5.33,4-12.55,8.88-2.35,1.58-6.2,4.17-7.59,5.18-17.25,14.57-35,29.55-53.21,43.77-7.7,6-15.81,8.68-22.33,10.82-2.26.74-4.36,1.43-5.73,2a33.83,33.83,0,0,0-3.81,1.88c-14.78,13.81-29.78,27.95-44.29,41.63l-1.39,1.31c-13.68,12.89-27.77,26.17-41.79,39.28.3,10.28-3,22.58-15.4,34.31-6.26,5.93-12.58,12.48-18.69,18.81l-.09.09c-4.26,4.42-9.11,9.46-14,14.35a38,38,0,0,1-25,11Z"/><path class="cls-2" d="M1004.35,465a32.41,32.41,0,0,1-16.06-60.56c11.56-6.59,113.62-64.57,139.26-72.2,8.82-3.08,39-25.11,64.76-47.22a32.4,32.4,0,0,1,51.83,34.91c-2,6-4.09,12.13-6.38,18.41a32.76,32.76,0,0,1-5,8.91,40,40,0,0,1-5.73,5.81s-.43.37-.43.37c-4.84,4.27-9.75,8.54-14.34,12.51-6.52,5.67-13.28,11.53-19.92,17.48a122.59,122.59,0,0,1-35.83,22.34l-140,56.85A32.24,32.24,0,0,1,1004.35,465Z"/><path class="cls-2" d="M1291.55,909.21A32.39,32.39,0,0,1,1260,884c-10.67-46.92-25.32-71.61-36.62-84.41-1.68,3-3.43,6-5.2,9-12.22,20.91-39.55,22.66-64.21,22.66-36.68,0-84.07-5.88-102.75-8.41-29.69-4-47.22-7.28-58.07-10.08-2.37.45-4.66.79-6.8,1.11-6.58,1-15.4,2-26.21,3-18.61,1.71-38.12,2.95-41.84,3.18q-1,.06-2,.06a32.54,32.54,0,0,1-13-2.7l-.9-.41a32.4,32.4,0,0,1,6.1-60.83l2.94-.73c13.74-3.42,27.46-6.42,40.73-9.32,10.64-2.33,22.64-5,34-7.68l.2,0a34.82,34.82,0,0,1,8-.91,43.36,43.36,0,0,1,14.37,2.67l.67.22c1.64.54,3.8,1.26,4.57,1.39,31.64,2.62,63.81,5.16,92.19,7.39q25.44,2,50.87,4l.08-.17c-.12-.86-.34-2.17-.73-4.06a133.13,133.13,0,0,1-2.06-17.28s0-.12,0-.14c-.2-2.72-.42-5.8-.77-8.56A32.4,32.4,0,0,1,1214.94,705c.56,1.18,1.87,4,10.58,5.32,33.67,5.28,60.54,35.67,79.85,90.33a451.19,451.19,0,0,1,18.21,71.06,32.42,32.42,0,0,1-32,37.48Z"/><path class="cls-2" d="M1295.54,952.69a32.4,32.4,0,0,1-30-20.25h0c-.24-.6-6.07-15-14.2-30.89-9.58-18.76-16.15-27.57-19.43-31.33-5.12-.09-12-.12-19.5-.16-41.67-.21-111.41-.57-166.71-10.21-19.13-3.34-36.55-6.8-51.78-10.28a32.4,32.4,0,0,1,7.2-64,32.77,32.77,0,0,1,4.06.25c7.52.94,15.71,1.87,26.57,3,53.57,5.64,110.15,8.69,177.57,9.56,2.29-2.28,4.66-4.85,7.12-7.53l2.88-3.12A32.4,32.4,0,0,1,1243,777.39c.58,0,1.17,0,1.76.05a32.41,32.41,0,0,1,24.24,13c16.22,21.83,28.09,46.75,39.57,70.84a268.5,268.5,0,0,1,16,42.57l2.15,7.65a32.42,32.42,0,0,1-31.19,41.17Z"/><path d="M715.62,989.89l-9,73.73-22.58,0,9.36-77.05a22.3,22.3,0,0,0,.23-3c0-4.28-2.61-4.74-3.74-4.74H682l-10.27,84.78-22.72,0,9.4-77.46a6.42,6.42,0,0,0,.19-1.48v-1.1a5.56,5.56,0,0,0-.84-3.3,3.33,3.33,0,0,0-2.89-1.43H647L636.7,1063.7l-22.72,0,12-99.48,82.83-.08h0a5.63,5.63,0,0,1,5.67,3.58,27.19,27.19,0,0,1,1.88,11A95.16,95.16,0,0,1,715.62,989.89ZM772.3,979.1l1.76-15-49.92,0-1.75,15h12.74L724.9,1063.6l24.36,0,10.27-84.47Zm65.45,6.22-1.09,9.27a36.92,36.92,0,0,1-.8,4.32c-.36,1.45-.76,2.83-1.18,4.11a28.39,28.39,0,0,1-1.28,3.27,6.1,6.1,0,0,1-1,1.68l-.81.79.61,1a13.13,13.13,0,0,1,1.39,3.28,19.87,19.87,0,0,1,.64,5.56,24,24,0,0,1-.13,2.47l-.21,2.7L831.62,1042h0c-.8,6.72-2.2,12.14-4.16,16.08-1.79,3.63-4.13,5.4-7.15,5.4l-53.38.06L779,964.08l52.51-.05h0a5.26,5.26,0,0,1,5.08,2.71c1.16,2.07,1.75,5.25,1.75,9.46A75.81,75.81,0,0,1,837.75,985.32Zm-27.44,39.81a9.61,9.61,0,0,0-.86-4.39,3.85,3.85,0,0,0-3.59-2.06H795.52l-3.77,30.69h10.61a5,5,0,0,0,4.42-2.4,16.11,16.11,0,0,0,1.86-6.47l1.45-12.32A25.54,25.54,0,0,0,810.31,1025.13Zm4.4-42c0-4.41-2.56-4.89-3.66-4.89H800.42l-3.23,26.95h10.89a4.07,4.07,0,0,0,3.48-2.27,13.42,13.42,0,0,0,1.55-5.36l1.34-11.68.18-1.27A13.77,13.77,0,0,0,814.71,983.09ZM922,1012.15a45.19,45.19,0,0,1-2,6.59,30.29,30.29,0,0,1-2.78,5.52,13.84,13.84,0,0,1-3.51,3.76l-.68.47,4.19,34.91-25.38,0-3.71-33.38h-6.17l-4,33.38-23.08,0,12-99.47,50.8-.06h0a6,6,0,0,1,2.55.68,7.3,7.3,0,0,1,2.62,2.44,16.5,16.5,0,0,1,2.21,5,31.3,31.3,0,0,1,.9,8.12,51.59,51.59,0,0,1-.52,7.16l-2.22,18C922.87,1007.52,922.47,1009.81,922,1012.15Zm-19.37-28c0-2.3-.36-3.81-1.12-4.73a4.15,4.15,0,0,0-3.33-1.48h-9.92l-4.53,37.79H894c5,0,5.93-7.79,6.24-10.35l2-16.91A29.06,29.06,0,0,0,902.58,984.16ZM936,963.91l-12,99.48,23.72,0,12.05-99.48Zm74.6,99.39-55.12.06,12.08-99.48,55.5-.06h0c2.06,0,3.5,1,4.52,3.21,1.16,2.48,1.74,5.89,1.75,10.14a58.21,58.21,0,0,1-.52,7.78l-6.91,56.86h0c-.8,6.82-2.22,12.25-4.22,16.14C1015.81,1061.55,1013.49,1063.3,1010.56,1063.3Zm-5.24-78.62a11.23,11.23,0,0,0-.74-4.41,3.3,3.3,0,0,0-3.07-2.28h0l-12.29,0-8.63,71.17h12a4.94,4.94,0,0,0,4.4-2.42,17,17,0,0,0,1.81-6.45l6.42-53v0C1005.27,986.07,1005.32,985.24,1005.32,984.68Zm42-20.88c-2.93,0-5.24,1.86-7.07,5.69a52.23,52.23,0,0,0-4.2,15.8l-6.88,56.85a71.67,71.67,0,0,0-.55,8.18c0,4.15.56,7.47,1.67,9.87a4.71,4.71,0,0,0,4.67,3.08h0l33.69,0,1.74-14.31H1057.8c-1.71,0-4.58-.79-4.59-6.06a27.69,27.69,0,0,1,.22-3.13l2.48-20.87,15.37,0,1.75-14.54-15.38,0,2.06-16.85a22.79,22.79,0,0,1,1.58-6.32c1.14-2.55,2.78-3.09,4-3.09H1079l1.68-14.31Zm99.31-.11-5,41.1-16.06,0,5-41.1-23.43,0-12,99.48,23.44,0,5.29-43.75,16.07,0-5.29,43.76,23.29,0,12-99.47Zm22.84,84.37c0,5,.67,8.85,2,11.53a5.6,5.6,0,0,0,5.49,3.53h0l51.76,0,12-99.48-23.43,0L1207,1048.47h-11.23a3.24,3.24,0,0,1-2.83-1.45,5.72,5.72,0,0,1-.8-3.28,25.43,25.43,0,0,1,.22-3.06l9.27-77.06-22.58,0-8.89,73.73A88.73,88.73,0,0,0,1169.44,1048.06ZM1307,984.82l-1.09,9.27a37.87,37.87,0,0,1-.8,4.33c-.36,1.44-.75,2.82-1.18,4.11a28.9,28.9,0,0,1-1.28,3.26,6.1,6.1,0,0,1-1,1.68l-.81.79.61,1a13.13,13.13,0,0,1,1.39,3.28,19.87,19.87,0,0,1,.64,5.56,24,24,0,0,1-.13,2.47l-.21,2.7-2.22,18.3h0c-.8,6.72-2.2,12.14-4.15,16.08-1.8,3.63-4.14,5.4-7.16,5.4l-53.38.06,12.09-99.48,52.51-.05h0a5.27,5.27,0,0,1,5.09,2.71c1.16,2.07,1.75,5.25,1.75,9.46A73.68,73.68,0,0,1,1307,984.82Zm-27.44,39.81a9.36,9.36,0,0,0-.86-4.39,3.84,3.84,0,0,0-3.59-2.06h-10.34l-3.76,30.69h10.6a5,5,0,0,0,4.43-2.4,16.3,16.3,0,0,0,1.85-6.47l1.45-12.32A25.54,25.54,0,0,0,1279.6,1024.63Zm4.4-42c0-4.41-2.56-4.89-3.66-4.89h-10.63l-3.23,26.95h10.89a4.05,4.05,0,0,0,3.48-2.27,13.47,13.47,0,0,0,1.56-5.36l1.33-11.68.18-1.27A11.6,11.6,0,0,0,1284,982.59Z"/><path d="M894,1015.74a4.3,4.3,0,0,0,3.19-1.41H883.85l-.17,1.42Z"/><path d="M1291.59,876.83c-1.89-4.59-3.76-8.48-5.71-12.54-1.87-3.88-3.81-7.9-5.84-12.76-4.71-11.27-10-22.62-15.81-33.73-4-7.68-8.35-15.12-13-23-2.07-3.54-4.19-7.16-6.34-10.93l-2.26-4-2.18,4c-.92,1.7-1.76,3.28-2.56,4.76-1.59,3-3,5.6-4.45,8.13-2.41,4.18-4.92,8.41-7.34,12.49q-2.42,4.06-4.82,8.14c-1.62,2.76-3.63,3.82-7.13,3.73-54.11-1-118.32-3.06-184.21-10.28-33.34-3.66-68.72-8.12-102.53-18.81a78.52,78.52,0,0,1-11.17-4.43l-.11,0,3.21-.8c13.22-3.29,26.72-6.24,39.78-9.1,11.35-2.48,23.08-5,34.6-7.82,1.1-.26,3,.38,4.58.9l.74.25a51.09,51.09,0,0,0,12.16,3c30.78,2.55,62.08,5,92.36,7.41q32.85,2.58,65.7,5.22c3.35.27,7.5,0,10-4.84a12.17,12.17,0,0,1,1-1.52l.58-.84.11-.3a107.77,107.77,0,0,1,4.74-10.88c3.87-7.92,5.32-11.7,2.41-25.87a110.14,110.14,0,0,1-1.5-13.23c-.24-3.34-.49-6.76-.92-10.23,5.09,10.72,15.25,20.34,34.81,23.41,50.54,7.94,70.63,131.57,71.09,134.47C1291.58,876.82,1291.59,876.82,1291.59,876.83Z"/><path d="M1009.13,763.47l19.65-5.53c-5.88-15.09-11.55-29.77-17.31-44.43-4-10.23-8.4-20.34-12.12-30.68-1.35-3.74-3.22-4.31-6.91-3.73-8.26,1.29-16.59,2.22-26.89,3.55,1.59-3,2.12-5.22,3.57-6.55a738.28,738.28,0,0,1,116.42-87.77,10.05,10.05,0,0,1,5.22-1.75c8.48.41,15.75-1.44,20.25-9.58,11.68,7.69,18.8,18.08,25.09,29.06.52.92-.21,3-1,4a65.29,65.29,0,0,1-5.56,5.59c9,15.5,18.54,30.2,26.45,45.65,12.9,25.18,21.28,51.73,22.66,80.15.57,12-6.91,21.17-10.95,31.55-.37,1-3.19,1.61-4.82,1.54q-73.75-3.6-147.5-7.48c-2.2-.11-4.32-1.41-6.47-2.16C1009,764.44,1009,764,1009.13,763.47Zm-17.56-96.23c.27.78.53,1.57.8,2.36,10.77-2.62,14,3.55,16.88,11.2,9.92,25.94,20.3,51.72,30.68,78,10.8.53,21.87,1.05,32.93,1.62,27.41,1.41,54.82,2.91,82.24,4.15,2.25.1,5.88-.92,6.68-2.45,4.36-8.21,8.62-16.57,6.65-26.27s-3.11-19.74-5.66-29.36c-8-30.07-22.65-57.16-40.86-82.6-4.69-6.54-4.42-9.54,1-15.4.65-.71,1.18-1.52,2.07-2.68L1113.5,591.2c-4.3,1.58-7.74,3.92-11.1,3.86-8.53-.17-15.35,3-21.94,7.66-6.1,4.3-12.73,7.93-18.73,12.34C1038.26,632.35,1015,649.83,991.57,667.24Z"/><path d="M608.19,709.88c-23.07,3.68-40.53,10.79-61.87,14.2v.64c2.75-.07,5.51,0,8.24-.24,19.72-1.65,39.42-3.49,59.16-4.91,2.95-.21,6,1.47,9,2.28l-.22,2.09a39.37,39.37,0,0,1-4.5.9q-48.07,3.87-96.15,7.63a16.41,16.41,0,0,1-15.49-7.91c-1.55-2.47-1.11-7.81.6-10.43,6.22-9.49,14.19-17.37,25.56-20.68,14.8-4.3,29.87-6,45.13-3.29A28,28,0,0,1,589,694.9C596.55,700.44,599.73,703,608.19,709.88Z"/><path class="cls-3" d="M905.18,624.44a18.21,18.21,0,0,0-1.67,2l-.36.47,0,0c.44-.19.89-.36,1.33-.53a12.78,12.78,0,0,0,3.82-2c5.69-5.06,11.42-10.27,17-15.31,6.37-5.8,13-11.79,19.53-17.6,3.56-3.15,5.13-5.86,5.41-9.35.5-6.1,3.22-11.14,8.83-16.33,27.66-25.57,55.5-51.89,82.42-77.33a11.14,11.14,0,0,0,2.06-3.36c.3-.63.6-1.27.94-1.89l.06-.08c1.16-1.65,3.2-2.4,5.18-3.13l.89-.34c1.67-.64,3.44-1.19,5.14-1.72,3.8-1.19,7.72-2.41,10.62-4.69,15.5-12.14,31-24.81,46-37.07q10.31-8.4,20.62-16.79A26.22,26.22,0,0,0,1143,403l-.27.08a13.78,13.78,0,0,1-1.59.41l-12.83,12.45-1.55,1.29c-19.56,16.3-39.79,33.16-59.83,49.57a38,38,0,0,1-8.92,4.91l-.74.32c-2.43,1.07-5,1.93-7.59,2.76-5.05,1.66-9.83,3.23-13.26,6.33-16.36,14.75-32.69,30.1-48.48,44.94-12.38,11.64-25.18,23.66-37.91,35.33-5.71,5.23-8.78,10-6.41,17.69,1.75,5.64-1.21,9.33-4,11.91-8.74,8.14-17.4,16.67-25.78,24.92Q909.52,620.18,905.18,624.44Z"/><path d="M1091.59,566.67l-6.34,2.54s-26.07,6.48-40.15,16.62-77.76,50.3-86.78,68a37,37,0,0,0-2.24,28,9,9,0,0,1-3,.93q-8.14,1.1-16.31,2.15l-51.21,7-19.8-34.58,29.25-3.87c8.25-1.37,17.09-2.83,25.83-4.18a19,19,0,0,0,12.06-6.67c14-15.81,28.2-31.84,42-47.35s27.8-31.3,41.66-47c2.42-2.74,4-3.27,7.19-2.5,13,3.11,27.07,6.1,43,9.15a16.1,16.1,0,0,0,10-1.85,142.75,142.75,0,0,0,12.5-8.06c.83-.59,1.67-1.16,2.51-1.74,1.35-.94,1.92-.92,2.06-.89s0,.18,0,.29C1094.61,546.59,1097.24,564.41,1091.59,566.67Z"/><path d="M991.73,689.42s-230.45,39.49-468.29,49.89l10.85,17.27,22.07-1.11c11.64-.61,23.27-1.39,34.91-2.07s23.25-1.55,34.88-2.34l17.44-1.22L661,748.37,678.43,747c5.8-.5,11.62-.88,17.41-1.49l34.79-3.4,8.7-.83,8.69-1,17.37-2c11.57-1.34,23.17-2.51,34.71-4.1l34.68-4.48c2.89-.34,5.77-.8,8.65-1.23l8.65-1.29,17.29-2.58,17.31-2.5c5.76-.91,11.5-2,17.25-2.92l17.24-3,17.27-2.85-17.09,3.75-17.13,3.64c-5.71,1.19-11.41,2.46-17.14,3.6l-17.21,3.17-17.24,3.09L844,732.2c-2.88.51-5.75,1-8.64,1.47l-34.63,5.24c-5.78.84-11.54,1.81-17.34,2.5L766,743.59l-17.38,2.18L740,746.86l-8.71.94-34.85,3.58c-5.8.64-11.63,1-17.44,1.57l-17.45,1.49L644,755.84,626.56,757l-17.48,1.16c-2.91.18-5.82.4-8.73.56l-8.75.43c-11.66.55-23.32,1.18-35,1.65q-9.63.36-19.26.67l11.57,18.43c7.5-.45,15-.93,22.48-1.37,11.63-.63,23.25-1.54,34.88-2.34L623.72,775l17.41-1.46,17.42-1.42c5.81-.5,11.63-.88,17.42-1.5l34.79-3.39,8.7-.83,8.69-1,17.36-2c11.58-1.34,23.18-2.5,34.72-4.1l34.68-4.48c2.89-.33,5.77-.79,8.65-1.22l8.65-1.3,17.29-2.58,17.31-2.5c5.76-.9,11.5-1.94,17.25-2.91l17.24-3,17.27-2.84-17.09,3.75-17.13,3.63c-5.71,1.2-11.41,2.47-17.14,3.6L850,752.69l-17.23,3.09-8.63,1.54c-2.87.51-5.74,1-8.63,1.47L780.87,764c-5.78.85-11.54,1.81-17.34,2.51l-17.38,2.18-17.38,2.18L720.08,772l-8.71.93-34.85,3.59c-5.8.64-11.63,1-17.44,1.57l-17.46,1.48L624.17,781l-17.48,1.16-17.48,1.15c-2.91.19-5.82.41-8.74.56l-8.74.44c-6.49.3-13,.63-19.46.94l11.12,17.7c7.67-.51,15.34-1.08,23-1.6l17.43-1.23,17.42-1.46,17.42-1.42c5.81-.5,11.62-.88,17.42-1.5l34.79-3.39,8.7-.83,8.68-1,17.37-2c11.58-1.34,23.18-2.5,34.72-4.09L795,780c2.89-.34,5.77-.8,8.65-1.23l8.65-1.29,17.29-2.58,17.31-2.5c5.76-.91,11.49-2,17.24-2.92l17.25-3,17.27-2.85-17.09,3.75L864.48,771c-5.71,1.19-11.41,2.46-17.14,3.59l-17.22,3.18-17.24,3.09-8.62,1.54c-2.87.51-5.74,1.06-8.63,1.47L761,789.16c-5.77.84-11.54,1.81-17.33,2.5l-17.38,2.18L708.9,796l-8.69,1.09-8.71.94-34.85,3.58c-5.8.64-11.63,1-17.44,1.57l-17.46,1.49-17.46,1.39-17.47,1.16-17.48,1.16-2.41.16L580,829.34s224.07-20.77,435-80.84Z"/><path d="M1032.23,645.14c-1.82,1.42-3.64,2.84-5.44,4.27l42,106.58,7.29.43Z"/><path d="M1062.71,755.63l4.59.27-41.64-105.59-3.41,2.74Z"/><path d="M1016.59,657.67q-5,4.13-9.89,8.31c3,5,6.2,9,8,13.58,9.37,23.45,18.32,47.06,27.69,70.51.81,2,3.52,4.55,5.51,4.67l7.13.43Z"/><path d="M1149.89,760.34c1.6.08,4.2-.93,4.78-2.14,2.82-5.79,6-11.56,4.8-18.43-1.15-6.54-1.54-13.22-2.88-19.72-6.63-32.09-20.89-61-39.81-87.72-5.54-7.83-8.25-15.16-1.06-23-3-5.08-5.38-10.1-12.47-6.09-1.12.63-2.79.27-4.18.49-3.33.52-7.24.19-9.87,1.81l-3.74,2.33,59.41,150.88Z"/><path d="M1065.85,620.68q-13.32,9-26.08,18.69l.31-.12L1086.51,757q16.9.94,33.82,1.83Z"/><path d="M626,946l682.37-.09c-1.63-3.2-3.37-6.72-5.19-10.19-.64-1.21-1.26-2.42-1.86-3.64L629.76,930Z"/><path d="M1052.05,488.14c-2.42,2.24-4.51,4.15-6.57,6.11-27.28,26-54.47,52-81.93,77.79-4.43,4.16-7,8.13-5.32,14.21,1.28,4.57-.55,7.69-4.13,10.78-15,12.94-29.56,26.3-44.51,39.24a12.15,12.15,0,0,1-8.05,2.72c-38.45-3.16-76.9-6.37-115.3-10-14.55-1.39-29-3.67-44.74-5.85a2.84,2.84,0,0,1-1.68-4.74l0,0c9.52-10.63,18.75-21.53,28.56-31.89q40.4-42.67,81.25-84.93c8.76-9.05,18.78-16.38,30.9-20.89a259.11,259.11,0,0,1,59.25-14.1c1.82-.22,4.2-.34,5.27-1.49,6.17-6.65,12-13.59,18.74-21.31-11.83-.54-22.51-.4-33-1.71-8.22-1-13.24,1.46-16.61,8.86-1.63,3.59-4.56,6.58-6.4,10.11-1.77,3.38-4,4.17-7.76,3.85H900l.92.4c-102.69.84-176.13,62.44-186.27,61.17s1.69-15.21-9.72-16.9C664.89,522.1,534.64,688,533.62,689.33a96.91,96.91,0,0,1,46.57-4.27,25,25,0,0,1,11.6,5c12.81,9.86,25.14,20.35,37.91,30.27a13.08,13.08,0,0,0,8.62,2.54Q755.17,709.61,872,696c1.74-.2,3.46-.44,6-.77l-24.1-41.87c2.1-.51,3.32-.88,4.57-1.1,19.87-3.45,39.77-6.71,59.59-10.47a18,18,0,0,0,9.42-5.21q42.78-47.49,85.07-95.43c2.59-2.93,4.91-3.78,8.77-2.92,15.2,3.41,30.48,6.51,45.77,9.57,1.89.38,4.42.59,5.88-.34,7-4.47,13.76-9.35,21.65-14.81C1078.23,519.32,1070.3,499.09,1052.05,488.14Z"/><path d="M1295.54,920.28c-.5-1.24-32.75-80.95-55.4-82.21-22.82-1.26-119.81,1.91-188.91-10.14-20.69-3.61-37.17-7-50.11-9.95-37.35-4.67-70.06-11.23-101.82-26.8a6.93,6.93,0,0,0-3.85-.28c-15,2.89-30.14,5.87-44.84,8.76-24.58,4.84-50,9.83-75.06,14.51-49.3,9.21-101.95,18.63-155.9,23.73-8.42.79-16.67,1.94-25.41,3.15l-8.43,1.16L630.53,919l665,1.3Z"/><polygon class="cls-4" points="645.03 906.94 609.73 849.98 655.25 892.86 762.79 911.86 645.03 906.94"/><path class="cls-5" d="M1107.38,561.8l-3.75,3.73c-5,5-9.71,9.7-14.56,14.23a7.23,7.23,0,0,1-1.81.32,15.77,15.77,0,0,0-2.42.39c-1.14.31-2.35.55-3.64.8-3.16.62-6.44,1.26-9.18,3.1-30.85,20.63-63.41,43-92.84,69.59l-.44.4c-8.63,7.8-17.56,15.85-22.45,27.41l-.21.15a37,37,0,0,1,2.24-28c9-17.75,72.69-57.91,86.78-68s40.15-16.62,40.15-16.62l6.34-2.54c5.65-2.26,3-20.08,2.38-23.92,0-.11,0-.21,0-.29.29,0,.71.45,1.12,1.07,3.16,4.71,6.34,9.4,9.58,14.19Z"/><path class="cls-6" d="M644.87,849.48s119.81-7.6,251.67-45c83.69,29.8,197.16,36.77,228.86,36.14,0,0-141.32,20.37-239.63,8.24C683.54,867.23,644.87,849.48,644.87,849.48Z"/><path class="cls-7" d="M900.87,465.21c-102.69.84-176.13,62.44-186.27,61.17s1.69-15.21-9.72-16.9C664.89,522.1,534.64,688,533.62,689.33c1.32-3,2-4.81,2.87-6.54,19.73-40.64,45.41-77.39,73.81-112.3,28.2-34.67,59.49-66.19,95.55-92.78,3.6-2.66,6.34-4.14,10.76-.86,4.88,3.65,10.3,3.86,16.5,1,18.88-8.8,39.3-11.6,59.81-13.56,35.69-3.4,71.37-2.4,107,.55Z"/><path d="M1194.18,314.61,719.39,458.4a16.32,16.32,0,0,0-4.3,3.07c.34.57,1.42,1.93,4.75,4.41a16.71,16.71,0,0,0,4.39,2.6,5.05,5.05,0,0,0,1.54.24,2.18,2.18,0,0,0,.51,0c13.47-6.59,28.75-10.82,48.08-13.29a506.14,506.14,0,0,1,63.44-3.93c18.46,0,37.69,1,57.15,2.88h.12c1,.09,1.88.14,2.67.14,3.75,0,5.36-1,6.91-4.26a60.85,60.85,0,0,1,7.89-11.94c1.84-2.25,5.49-4.68,9.17-4.68H922c12.3.39,24.54,1,37.5,1.59q5.84.29,11.87.56l10.43.49-6.82,7.9c-2.21,2.57-4.35,5.08-6.45,7.53-5.47,6.42-10.65,12.47-16.07,18.36a21.25,21.25,0,0,1-10.63,6.15c-5.87,1.27-11.84,2.33-17.62,3.36-5.28.93-10.75,1.9-16.05,3-22.56,4.75-40.09,14.14-53.58,28.7-21.07,22.74-42.83,45.51-63.87,67.55-9.33,9.77-19,19.87-28.44,29.84l0,.05,0,0a1.63,1.63,0,0,0-.36,1.76,1.68,1.68,0,0,0,1.44,1.15l128,15.65a6.3,6.3,0,0,0,3.11-1.62c4.57-4.53,9.13-9.26,13.55-13.84,6.38-6.62,13-13.47,19.82-19.94,4.84-4.58,6.11-8,4.82-12.91-2.17-8.3,2.24-13.61,5.75-16.88,16-15,32.25-30.25,47.94-45,14.66-13.82,29.82-28.11,44.8-42.11,3.72-3.47,8.36-5.7,12.42-7.51a93.17,93.17,0,0,1,8.83-3.24c4.76-1.56,9.26-3,12.51-5.58,17.9-14,35.6-28.93,52.71-43.39,2.55-2.15,17.16-11.54,19.72-13.69-18.51,3.89-41.19,10.14-58.61,13.9-21.15,4.58-51.48,12.37-74.3,17.09h0l140-56.85a90.8,90.8,0,0,0,26.39-16.45c6.77-6.06,13.61-12,20.32-17.82,4.68-4.07,9.51-8.27,14.23-12.43l.66-.56a15.06,15.06,0,0,0,1.37-1.27c1.63-4.46,3.16-8.93,4.73-13.55.45-1.34.91-2.7,1.37-4.08C1207.19,311.09,1200.73,312.8,1194.18,314.61Z"/><path class="cls-8" d="M1213.43,309.53c-2,6.09-4,11.87-6.1,17.63a15.06,15.06,0,0,1-1.37,1.27l-.66.56c-4.72,4.16-9.55,8.36-14.23,12.43-6.71,5.81-13.55,11.76-20.32,17.82a90.8,90.8,0,0,1-26.39,16.45l-140,56.85c1.71-1,111.09-63,132.48-69.3C1158.37,356.9,1213.43,309.53,1213.43,309.53Z"/><path class="cls-9" d="M1291.58,876.81c-28.23-124.14-89-127.42-87-120.66s-3.66,17.75-14.37,36.07-187.65-6.48-196.66-13.53c-2.64,4.22-68.63,8.44-77.26,9l-.11,0,3.21-.8c13.22-3.29,26.72-6.24,39.78-9.1,11.35-2.48,23.08-5,34.6-7.82,1.1-.26,3,.38,4.58.9l.74.25a51.09,51.09,0,0,0,12.16,3c30.78,2.55,62.08,5,92.36,7.41q32.85,2.58,65.7,5.22c3.35.27,7.5,0,10-4.84a12.17,12.17,0,0,1,1-1.52l.58-.84.11-.3a107.77,107.77,0,0,1,4.74-10.88c3.87-7.92,5.32-11.7,2.41-25.87a110.14,110.14,0,0,1-1.5-13.23c-.24-3.34-.49-6.76-.92-10.23,5.09,10.72,15.25,20.34,34.81,23.41C1271,750.28,1291.12,873.91,1291.58,876.81Z"/><path class="cls-10" d="M1295.54,920.28c-.5-1.24-32.75-80.95-55.4-82.21-22.82-1.26-119.81,1.91-188.91-10.14-20.69-3.61-37.17-7-50.11-9.95,8.79,1.1,17.85,2.1,27.21,3.08,56.41,5.94,116,9.06,187.55,9.82h.1c5.38,0,10.75-4.46,12.28-5.84,4.29-3.85,8.23-8.15,12.06-12.31.89-1,1.8-2,2.71-2.94,14.33,19.28,25.5,42.73,36.31,65.45a235,235,0,0,1,14.05,37.4Z"/></g></svg>